<svg width="216" height="200" viewBox="0 0 216 200" fill="none" xmlns="http://www.w3.org/2000/svg">
<path d="M196 0H20.0002C14.6958 0 9.60877 2.10714 5.85804 5.85786C2.10731 9.60859 0.000174395 14.6957 0.000174395 20V180C-0.0158003 183.809 1.066 187.541 3.11613 190.751C5.16626 193.961 8.09788 196.513 11.5602 198.1C14.2179 199.344 17.1155 199.993 20.0502 200C24.7464 199.988 29.2872 198.316 32.8702 195.28L32.9902 195.17L64.4702 168H196C201.304 168 206.392 165.893 210.142 162.142C213.893 158.391 216 153.304 216 148V20C216 14.6957 213.893 9.60859 210.142 5.85786C206.392 2.10714 201.304 0 196 0ZM192 144H60.0002C57.12 143.995 54.3354 145.032 52.1602 146.92L24.0002 171.23V24H192V144Z" fill="black"/>
</svg>
